<svg xmlns="http://www.w3.org/2000/svg" xmlns:xlink="http://www.w3.org/1999/xlink" width="500" zoomAndPan="magnify" viewBox="0 0 375 374.999991" height="500" preserveAspectRatio="xMidYMid meet" version="1.0"><defs><g/></defs><path fill="#1f2937" d="M 187.492188 2.777344 C 286.023438 2.777344 365.898438 82.652344 365.898438 181.183594 L 365.898438 193.066406 C 365.898438 291.597656 286.023438 371.472656 187.492188 371.472656 C 88.957031 371.472656 9.082031 291.597656 9.082031 193.066406 L 9.082031 181.183594 C 9.082031 82.652344 88.957031 2.777344 187.492188 2.777344 Z M 187.492188 2.777344 " fill-opacity="1" fill-rule="nonzero"/><g fill="#eeedf2" fill-opacity="1"><g transform="translate(100.279608, 268.124982)"><g><path d="M 136.109375 -82.984375 C 145.234375 -80.097656 152.378906 -75.273438 157.546875 -68.515625 C 162.710938 -61.753906 165.296875 -53.429688 165.296875 -43.546875 C 165.296875 -29.566406 159.863281 -18.8125 149 -11.28125 C 138.132812 -3.757812 122.285156 0 101.453125 0 L 18.921875 0 L 18.921875 -159.59375 L 96.90625 -159.59375 C 116.351562 -159.59375 131.28125 -155.867188 141.6875 -148.421875 C 152.101562 -140.972656 157.3125 -130.867188 157.3125 -118.109375 C 157.3125 -110.347656 155.445312 -103.425781 151.71875 -97.34375 C 148 -91.269531 142.796875 -86.484375 136.109375 -82.984375 Z M 55.625 -131.78125 L 55.625 -94.15625 L 92.34375 -94.15625 C 101.457031 -94.15625 108.367188 -95.75 113.078125 -98.9375 C 117.796875 -102.132812 120.15625 -106.851562 120.15625 -113.09375 C 120.15625 -119.320312 117.796875 -123.992188 113.078125 -127.109375 C 108.367188 -130.222656 101.457031 -131.78125 92.34375 -131.78125 Z M 98.71875 -27.8125 C 108.445312 -27.8125 115.78125 -29.40625 120.71875 -32.59375 C 125.664062 -35.789062 128.140625 -40.734375 128.140625 -47.421875 C 128.140625 -60.648438 118.332031 -67.265625 98.71875 -67.265625 L 55.625 -67.265625 L 55.625 -27.8125 Z M 98.71875 -27.8125 "/></g></g></g></svg>